<svg width="116" height="132" viewBox="0 0 116 132" fill="none" xmlns="http://www.w3.org/2000/svg">
<path fill-rule="evenodd" clip-rule="evenodd" d="M49.5232 0.750255C39.2275 -1.90513 29.0902 2.79552 21.8246 10.0112C19.358 12.4609 18.0051 15.8808 17.2563 19.5705C16.5057 23.2692 16.3383 27.3621 16.3383 31.2723C16.3383 33.0654 16.3722 34.7868 16.4045 36.4252C16.4442 38.4354 16.4814 40.3206 16.4504 42.0602C16.4228 43.6097 16.3401 44.9584 16.1637 46.0652C15.9839 47.1925 15.7229 47.9566 15.4133 48.4178C15.2856 48.608 15.1371 48.8261 14.9707 49.0707C12.8392 52.2022 7.76326 59.6598 5.7383 68.1273C4.64191 72.7119 4.41819 77.6708 6.09322 82.4405C7.77564 87.2313 11.332 91.7115 17.5763 95.3863C18.1254 95.7095 18.8344 95.5294 19.1598 94.9841C19.4852 94.4387 19.3038 93.7346 18.7547 93.4114C12.9129 89.9734 9.75479 85.896 8.27581 81.6845C6.78944 77.4521 6.9574 72.9642 7.98726 68.6578C9.90875 60.6229 14.7548 53.4925 16.8934 50.3456C17.058 50.1034 17.2066 49.8848 17.3366 49.6911C17.9223 48.8187 18.2488 47.6656 18.4467 46.4243C18.6479 45.1625 18.7332 43.691 18.7615 42.1008C18.7925 40.3604 18.7542 38.3719 18.7143 36.2966C18.6826 34.6496 18.6498 32.9479 18.6498 31.2723C18.6498 27.4029 18.8181 23.4938 19.5223 20.0241C20.2283 16.5454 21.4493 13.6304 23.4591 11.6345C30.4516 4.69005 39.8923 0.519285 49.1956 3.03917L49.4762 3.11517L49.7596 3.05022C55.3278 1.77413 63.1996 2.32666 69.8217 5.6042C76.3858 8.85304 81.6845 14.7493 82.3672 24.2412C82.7769 29.9375 82.9986 34.6062 83.1838 38.5053C83.2004 38.8554 83.2167 39.1992 83.2329 39.5371C83.4282 43.6238 83.5976 46.8674 83.9403 49.5332C84.2841 52.2082 84.8101 54.3741 85.7547 56.2958C86.7053 58.2294 88.0454 59.8467 89.9211 61.4767C91.3985 62.7605 92.4038 65.1469 92.8235 68.333C93.2379 71.4795 93.0543 75.2168 92.3441 78.9604C91.6343 82.7019 90.4087 86.3958 88.779 89.4588C87.139 92.5413 85.148 94.8769 82.9666 96.0586C82.4062 96.3621 82.1998 97.0593 82.5054 97.6159C82.8111 98.1724 83.5131 98.3774 84.0735 98.0739C86.816 96.5882 89.0776 93.8115 90.8228 90.5313C92.5783 87.2317 93.8706 83.3126 94.6156 79.3855C95.3602 75.4605 95.5683 71.4737 95.1154 68.0353C94.6678 64.6364 93.5469 61.5771 91.4432 59.749C89.7379 58.2671 88.616 56.8837 87.832 55.2887C87.042 53.6817 86.5608 51.7911 86.2332 49.2425C85.9044 46.6848 85.7382 43.538 85.5418 39.4283C85.5256 39.0901 85.5093 38.7456 85.4926 38.3947C85.3075 34.496 85.0846 29.8023 84.6729 24.0777C83.9231 13.6537 78.031 7.10241 70.8528 3.54959C63.8426 0.0799799 55.5707 -0.558481 49.5232 0.750255ZM55.6476 36.2775C59.0971 34.142 60.7802 31.966 61.4506 30.4189C61.7043 29.8333 62.2958 29.3946 62.9273 29.4877C63.5606 29.581 63.9945 30.1701 63.987 30.8102C63.9661 32.5906 64.4159 34.8975 65.8167 36.995C67.5138 39.5364 70.6947 41.9024 76.4927 42.5799C77.1266 42.6539 77.5801 43.2244 77.5055 43.8539C77.4309 44.4835 76.8565 44.9338 76.2226 44.8598C69.8449 44.1146 66.013 41.4424 63.8903 38.2638C62.9271 36.8215 62.3341 35.3022 62.007 33.8575C60.8424 35.3032 59.1607 36.8078 56.8703 38.2256C52.1421 41.1527 44.72 43.7836 33.4963 44.8623C32.861 44.9234 32.2961 44.4613 32.2346 43.8304C32.1731 43.1994 32.6383 42.6384 33.2736 42.5773C44.2525 41.5222 51.3038 38.9666 55.6476 36.2775Z" fill="#B71F27"/>
<path d="M57.2969 81.1182C58.0821 80.8927 58.8532 80.6339 59.6084 80.3436V78.3949C59.6084 78.2216 59.5697 78.0573 59.5005 77.91C58.7821 78.2117 58.0469 78.4818 57.2969 78.7187V81.1182Z" fill="#B71F27"/>
<path fill-rule="evenodd" clip-rule="evenodd" d="M23.7977 43.7197C23.7977 43.0858 23.2802 42.5719 22.6419 42.5719C22.0036 42.5719 21.4861 43.0858 21.4861 43.7197V54.389C21.4861 65.529 28.079 75.1398 37.6011 79.583V81.2309C37.6011 85.3193 36.2023 89.2822 33.6406 92.4728L12.7611 96.9562C5.31461 98.5552 0 105.096 0 112.663V130.852C0 131.486 0.517452 132 1.15576 132C1.79407 132 2.31152 131.486 2.31152 130.852V112.663C2.31152 106.177 6.86691 100.571 13.2496 99.2L33.9089 94.7639L42.884 103.677C46.0435 106.815 51.166 106.815 54.3255 103.677L63.3062 94.7583L85.6063 99.3012C92.0574 100.615 96.6885 106.254 96.6885 112.794V130.852C96.6885 131.486 97.2059 132 97.8442 132C98.4826 132 99 131.486 99 130.852V112.794C99 105.164 93.5971 98.5856 86.0708 97.0524L63.5646 92.4675C61.0056 89.2778 59.6084 85.317 59.6084 81.2309V80.3436C70.0844 76.3167 77.5135 66.2145 77.5135 54.389V43.7197C77.5135 43.0858 76.996 42.5719 76.3577 42.5719C75.7194 42.5719 75.202 43.0858 75.202 43.7197V54.389C75.202 64.9634 68.7274 74.036 59.5005 77.91C59.5697 78.0573 59.6084 78.2216 59.6084 78.3949V80.3436C58.8532 80.6339 58.0821 80.8927 57.2969 81.1182V78.7187C54.8377 79.4953 52.218 79.9144 49.4998 79.9144C46.0917 79.9144 42.8386 79.2556 39.8624 78.0593C39.3215 77.8419 38.7898 77.6067 38.2679 77.3545C29.7014 73.2146 23.7977 64.4865 23.7977 54.389V43.7197ZM57.2969 81.1182V81.2309C57.2969 85.6352 58.7369 89.9104 61.3848 93.42L52.691 102.054C50.4342 104.295 46.7753 104.295 44.5185 102.054L35.8247 93.42C38.4726 89.9104 39.9126 85.6352 39.9126 81.2309V80.5381C42.9035 81.6199 46.1323 82.21 49.4998 82.21C52.2056 82.21 54.8217 81.829 57.2969 81.1182Z" fill="#B71F27"/>
<path fill-rule="evenodd" clip-rule="evenodd" d="M54.4373 61.6642H44.5627C43.0012 61.6642 41.7353 62.9208 41.7353 64.471V64.5547C41.7353 68.8118 45.2117 72.2628 49.5 72.2628C53.7883 72.2628 57.2647 68.8118 57.2647 64.5547V64.471C57.2647 62.9208 55.9989 61.6642 54.4373 61.6642ZM44.5627 63.5912C44.0732 63.5912 43.6765 63.9851 43.6765 64.471V64.5547C43.6765 67.7475 46.2838 70.3358 49.5 70.3358C52.7163 70.3358 55.3235 67.7475 55.3235 64.5547V64.471C55.3235 63.9851 54.9268 63.5912 54.4373 63.5912H44.5627Z" fill="#B71F27"/>
<path fill-rule="evenodd" clip-rule="evenodd" d="M105.983 6.76303C106.374 6.28414 106.28 5.59129 105.791 5.22444C105.314 4.86691 104.626 4.94253 104.245 5.40847L93.2428 18.8815C92.8517 19.3604 92.9456 20.0532 93.4347 20.4201C93.9114 20.7776 94.5995 20.702 94.98 20.2361L105.983 6.76303ZM93.63 19.1978C93.422 19.4525 93.4688 19.8207 93.7347 20.0201C93.7399 20.024 93.7452 20.0279 93.7506 20.0316C94.0156 20.2176 94.3888 20.1696 94.5928 19.9198L105.595 6.44677C105.803 6.192 105.757 5.82383 105.491 5.62444C105.485 5.62051 105.48 5.61666 105.475 5.61292C105.21 5.42691 104.837 5.47498 104.633 5.72473L93.63 19.1978ZM115.021 26.9211C115.612 26.852 116.07 26.3255 115.992 25.709C115.914 25.0971 115.345 24.6962 114.757 24.7649L97.0358 26.836C96.4442 26.9051 95.9866 27.4317 96.065 28.0481C96.1429 28.66 96.7117 29.0609 97.2998 28.9922L115.021 26.9211ZM114.963 26.4245C115.298 26.3853 115.536 26.0933 115.496 25.7721C115.455 25.451 115.15 25.2224 114.815 25.2616L97.0938 27.3326C96.7587 27.3718 96.5202 27.6639 96.561 27.985C96.6019 28.3062 96.9067 28.5347 97.2418 28.4956L114.963 26.4245Z" fill="#B71F27"/>
<path fill-rule="evenodd" clip-rule="evenodd" d="M108.58 18.067C108.832 18.636 108.546 19.2736 107.988 19.5008L96.3723 24.2259C95.8237 24.4491 95.1719 24.2119 94.9252 23.6549C94.6732 23.0859 94.9593 22.4484 95.5178 22.2212L107.133 17.4961C107.682 17.2729 108.334 17.5101 108.58 18.067ZM107.799 19.0376C108.11 18.9112 108.255 18.5673 108.123 18.2695C107.991 17.9717 107.633 17.8328 107.322 17.9592L95.7062 22.6844C95.3954 22.8108 95.2505 23.1547 95.3824 23.4525C95.5143 23.7503 95.8731 23.8892 96.1838 23.7628L107.799 19.0376Z" fill="#B71F27"/>
<path d="M108.123 18.2695C108.255 18.5673 108.11 18.9112 107.799 19.0376L96.1838 23.7628C95.8731 23.8892 95.5143 23.7503 95.3824 23.4525C95.2505 23.1547 95.3954 22.8108 95.7062 22.6844L107.322 17.9592C107.633 17.8328 107.991 17.9717 108.123 18.2695Z" fill="#B71F27"/>
<path d="M105.491 5.62444C105.757 5.82383 105.803 6.192 105.595 6.44677L94.5928 19.9198C94.3888 20.1696 94.0156 20.2176 93.7506 20.0316C93.7452 20.0279 93.7399 20.024 93.7347 20.0201C93.4688 19.8207 93.422 19.4525 93.63 19.1978L104.633 5.72473C104.837 5.47498 105.21 5.42691 105.475 5.61292C105.48 5.61666 105.485 5.62051 105.491 5.62444Z" fill="#B71F27"/>
<path d="M115.496 25.7721C115.536 26.0933 115.298 26.3853 114.963 26.4245L97.2418 28.4956C96.9067 28.5347 96.6019 28.3062 96.561 27.985C96.5202 27.6639 96.7587 27.3718 97.0938 27.3326L114.815 25.2616C115.15 25.2224 115.455 25.451 115.496 25.7721Z" fill="#B71F27"/>
</svg>
