<svg width="109" height="119" viewBox="0 0 109 119" fill="none" xmlns="http://www.w3.org/2000/svg">
<path d="M63.4951 0H35.9806V2.10619H63.4951V0Z" fill="#B71F27"/>
<path d="M81.4854 34.7522H83.6019V32.646H81.4854V34.7522Z" fill="#B71F27"/>
<path d="M109 42.1239C109 36.8894 104.736 32.646 99.4757 32.646H83.6019V34.7522H99.4757C103.567 34.7522 106.883 38.0526 106.883 42.1239C106.883 46.1952 103.567 49.4956 99.4757 49.4956H83.6019V51.6018H99.4757C104.736 51.6018 109 47.3584 109 42.1239Z" fill="#B71F27"/>
<path d="M61.3786 32.646C56.1185 32.646 51.8544 36.8894 51.8544 42.1239C51.8544 43.2795 52.0622 44.3869 52.4427 45.4109L51.6851 56.7001L62.1065 51.6018H81.4854V49.4956H61.3786L58.1333 51.1986L54.0412 53.2005L55.0291 45.4109C53.9709 44.7566 53.9709 42.6504 53.9709 42.1239C53.9709 38.0526 57.2874 34.7522 61.3786 34.7522H81.4854V32.646H61.3786Z" fill="#B71F27"/>
<path d="M83.6019 49.4956H81.4854V51.6018H83.6019V49.4956Z" fill="#B71F27"/>
<path d="M70.9029 119C77.9164 119 83.6019 113.342 83.6019 106.363V51.6018H81.4854V106.363C81.4854 112.179 76.7475 116.894 70.9029 116.894H28.5728C22.7283 116.894 17.9903 112.179 17.9903 106.363V82.1416H15.8738V106.363C15.8738 113.342 21.5593 119 28.5728 119H70.9029Z" fill="#B71F27"/>
<path d="M70.9029 0H63.4951V2.10619H65.6116H70.9029C76.7475 2.10619 81.4854 6.82107 81.4854 12.6372V32.646H83.6019V12.6372C83.6019 5.65785 77.9164 0 70.9029 0Z" fill="#B71F27"/>
<path d="M35.9806 0H28.5728C21.5593 0 15.8738 5.65785 15.8738 12.6372V63.1858H17.9903V12.6372C17.9903 6.82107 22.7283 2.10619 28.5728 2.10619H33.8641H35.9806V0Z" fill="#B71F27"/>
<path d="M9.52427 63.1858C4.26416 63.1858 0 67.4292 0 72.6637C0 77.8982 4.26416 82.1416 9.52427 82.1416H15.8738V80.0354H9.52427C5.43307 80.0354 2.1165 76.735 2.1165 72.6637C2.1165 68.5925 5.43307 65.292 9.52427 65.292H15.8738V63.1858H9.52427Z" fill="#B71F27"/>
<path d="M47.6214 72.6637C47.6214 67.4292 43.3572 63.1858 38.0971 63.1858H17.9903V65.292H38.0971C42.1883 65.292 45.5049 68.5925 45.5049 72.6637C45.5049 74.6968 45.1664 75.9507 45.1664 75.9507L45.4346 83.7403L41.3424 81.7384L38.0971 80.0354H17.9903V82.1416H37.3693L47.0922 86.8805L47.033 75.9507C47.4135 74.9267 47.6214 73.8194 47.6214 72.6637Z" fill="#B71F27"/>
<path d="M15.8738 65.292H17.9903V63.1858H15.8738V65.292Z" fill="#B71F27"/>
<path d="M35.9806 2.10619H33.8641C33.8641 5.59585 36.7069 8.42478 40.2136 8.42478H59.2621C62.7689 8.42478 65.6116 5.59585 65.6116 2.10619H63.4951C63.4951 2.87345 63.289 3.5928 62.9288 4.21239C62.1969 5.47148 60.8289 6.31858 59.2621 6.31858H40.2136C38.6468 6.31858 37.2788 5.47148 36.5469 4.21239C36.1867 3.5928 35.9806 2.87345 35.9806 2.10619Z" fill="#B71F27"/>
<path d="M17.9903 80.0354H15.8738V82.1416H17.9903V80.0354Z" fill="#B71F27"/>
</svg>
