<svg width="108" height="128" viewBox="0 0 108 128" fill="none" xmlns="http://www.w3.org/2000/svg">
<path fill-rule="evenodd" clip-rule="evenodd" d="M73.086 50.9523C73.086 61.185 64.7493 69.4804 54.4654 69.4804C44.1815 69.4804 35.8447 61.185 35.8447 50.9523C35.8447 40.7195 44.1815 32.4242 54.4654 32.4242C64.7493 32.4242 73.086 40.7195 73.086 50.9523ZM54.4654 67.6275C56.777 67.6275 58.9792 67.1619 60.9826 66.3196C61.6247 66.0497 62.2464 65.7411 62.8447 65.3967C67.8538 62.5135 71.224 57.1245 71.224 50.9523C71.224 41.7428 63.7209 34.277 54.4654 34.277C45.2099 34.277 37.7068 41.7428 37.7068 50.9523C37.7068 57.1245 41.0769 62.5135 46.0861 65.3967C46.6844 65.7411 47.3061 66.0497 47.9482 66.3196C49.9515 67.1619 52.1538 67.6275 54.4654 67.6275Z" fill="#B71F27"/>
<path fill-rule="evenodd" clip-rule="evenodd" d="M63.7757 74.1124H62.8447H60.9826H47.9482H46.0861H45.1551V84.3028C45.1551 89.4192 49.3234 93.5669 54.4654 93.5669C59.6073 93.5669 63.7757 89.4192 63.7757 84.3028V74.1124ZM43.293 72.2596V84.3028C43.293 90.4425 48.2951 95.4197 54.4654 95.4197C60.6357 95.4197 65.6378 90.4425 65.6378 84.3028V72.2596H43.293Z" fill="#B71F27"/>
<path fill-rule="evenodd" clip-rule="evenodd" d="M54.4654 21.7705C55.2367 21.7705 55.8619 22.3927 55.8619 23.1601V27.7921C55.8619 28.5596 55.2367 29.1818 54.4654 29.1818C53.6941 29.1818 53.0688 28.5596 53.0688 27.7921V23.1601C53.0688 22.3927 53.6941 21.7705 54.4654 21.7705Z" fill="#B71F27"/>
<path fill-rule="evenodd" clip-rule="evenodd" d="M69.5946 25.6623C70.2626 26.0461 70.4915 26.8959 70.1058 27.5606L67.7782 31.572C67.3926 32.2367 66.5385 32.4644 65.8705 32.0807C65.2026 31.6969 64.9737 30.847 65.3593 30.1824L67.6869 26.171C68.0726 25.5063 68.9267 25.2786 69.5946 25.6623Z" fill="#B71F27"/>
<path fill-rule="evenodd" clip-rule="evenodd" d="M80.189 36.3614C80.5747 37.0261 80.3458 37.8759 79.6779 38.2597L75.6464 40.5757C74.9784 40.9594 74.1243 40.7317 73.7387 40.067C73.353 39.4024 73.5819 38.5525 74.2498 38.1688L78.2813 35.8528C78.9493 35.4691 79.8034 35.6968 80.189 36.3614Z" fill="#B71F27"/>
<path fill-rule="evenodd" clip-rule="evenodd" d="M28.7418 36.3614C28.3561 37.0261 28.585 37.8759 29.2529 38.2597L33.2844 40.5757C33.9524 40.9594 34.8065 40.7317 35.1921 40.067C35.5778 39.4024 35.3489 38.5525 34.681 38.1688L30.6495 35.8528C29.9815 35.4691 29.1274 35.6968 28.7418 36.3614Z" fill="#B71F27"/>
<path fill-rule="evenodd" clip-rule="evenodd" d="M83.7929 50.9523C83.7929 51.7197 83.1677 52.3419 82.3964 52.3419H77.7412C76.9699 52.3419 76.3447 51.7197 76.3447 50.9523C76.3447 50.1848 76.9699 49.5627 77.7412 49.5627H82.3964C83.1677 49.5627 83.7929 50.1848 83.7929 50.9523Z" fill="#B71F27"/>
<path fill-rule="evenodd" clip-rule="evenodd" d="M25.1379 50.9523C25.1379 51.7197 25.7631 52.3419 26.5344 52.3419H31.1896C31.9609 52.3419 32.5861 51.7197 32.5861 50.9523C32.5861 50.1848 31.9609 49.5627 31.1896 49.5627H26.5344C25.7631 49.5627 25.1379 50.1848 25.1379 50.9523Z" fill="#B71F27"/>
<path fill-rule="evenodd" clip-rule="evenodd" d="M80.189 66.0064C79.8034 66.671 78.9493 66.8987 78.2813 66.515L74.2498 64.199C73.5819 63.8153 73.353 62.9654 73.7387 62.3008C74.1243 61.6361 74.9784 61.4084 75.6464 61.7921L79.6779 64.1081C80.3458 64.4919 80.5747 65.3417 80.189 66.0064Z" fill="#B71F27"/>
<path fill-rule="evenodd" clip-rule="evenodd" d="M28.7418 66.0064C29.1274 66.671 29.9815 66.8987 30.6495 66.515L34.681 64.199C35.3489 63.8153 35.5778 62.9654 35.1921 62.3008C34.8065 61.6361 33.9524 61.4084 33.2844 61.7921L29.2529 64.1081C28.585 64.4919 28.3561 65.3417 28.7418 66.0064Z" fill="#B71F27"/>
<path fill-rule="evenodd" clip-rule="evenodd" d="M39.8017 25.6623C39.1337 26.0461 38.9048 26.8959 39.2905 27.5606L41.6181 31.572C42.0037 32.2367 42.8578 32.4644 43.5258 32.0807C44.1937 31.6969 44.4226 30.847 44.037 30.1824L41.7094 26.171C41.3237 25.5063 40.4696 25.2786 39.8017 25.6623Z" fill="#B71F27"/>
<path fill-rule="evenodd" clip-rule="evenodd" d="M47.9482 66.3196V74.1124H46.0861V65.3967C46.6844 65.7411 47.3061 66.0497 47.9482 66.3196ZM62.8447 74.1124V65.3967C62.2464 65.7411 61.6247 66.0497 60.9826 66.3196V74.1124H62.8447Z" fill="#B71F27"/>
<path fill-rule="evenodd" clip-rule="evenodd" d="M49.3447 56.9739C49.8589 56.9739 50.2757 57.3887 50.2757 57.9003V60.2163H58.655V57.9003C58.655 57.3887 59.0719 56.9739 59.5861 56.9739C60.1003 56.9739 60.5171 57.3887 60.5171 57.9003V62.0691H55.3964V68.0908C55.3964 68.6024 54.9796 69.0172 54.4654 69.0172C53.9512 69.0172 53.5344 68.6024 53.5344 68.0908V62.0691H48.4137V57.9003C48.4137 57.3887 48.8305 56.9739 49.3447 56.9739Z" fill="#B71F27"/>
<path d="M59.9018 0C45.7393 0 33.4904 4.32154 24.7936 14.2391C20.7713 18.8314 12.7849 31.6167 12.7849 46.3814C12.7849 55.0492 9.42793 59.6544 6.21145 62.9868C5.58437 63.6365 4.96525 64.2348 4.36336 64.8165L4.36176 64.8181C4.17771 64.9959 3.99515 65.1723 3.81514 65.3476C3.05652 66.0861 2.32812 66.8179 1.72324 67.565C0.494144 69.0831 -0.318935 70.7861 0.120678 72.9495C0.782549 76.2067 3.22452 78.0835 5.77575 79.1021C7.79901 79.9098 9.99372 80.227 11.7262 80.2822C11.0845 86.5175 10.6377 93.7052 10.8949 99.56C11.0312 102.664 11.3677 105.463 12.0104 107.562C12.3314 108.611 12.7475 109.549 13.3018 110.27C13.8654 111.004 14.6152 111.564 15.5758 111.71C17.825 112.051 22.0449 112.381 26.6794 112.338C30.9673 112.298 35.6935 111.938 39.5759 110.934C40.5623 113.082 41.8711 116.096 42.9819 119.009C43.6126 120.662 44.1742 122.269 44.5766 123.658C44.9873 125.076 45.2029 126.171 45.2029 126.843V126.926C45.2029 127.52 45.6837 128 46.2768 128C46.8699 128 47.3507 127.52 47.3507 126.926V126.843C47.3507 125.85 47.0574 124.508 46.6409 123.071C46.2163 121.605 45.6326 119.939 44.9909 118.256C43.9033 115.405 42.6336 112.467 41.6472 110.307C42.7964 109.902 43.843 109.425 44.7237 108.859C45.6344 108.274 46.3357 107.318 46.8105 106.345C47.0292 105.897 46.8002 105.374 46.3428 105.176C45.8444 104.96 45.2581 105.21 44.9542 105.66C44.6121 106.167 44.1283 106.705 43.5553 107.073C42.6185 107.675 41.3649 108.2 39.8617 108.645C36.1122 109.755 31.2137 110.167 26.6592 110.21C22.1156 110.252 18.0135 109.926 15.9003 109.606C15.6386 109.567 15.3403 109.41 15.0107 108.981C14.6713 108.539 14.3481 107.867 14.0656 106.945C13.5015 105.102 13.1743 102.513 13.0406 99.4674C12.7738 93.3954 13.2843 85.7802 13.9868 79.3275L14.121 78.0945L12.8707 78.1504C11.2595 78.2225 8.76596 78.0015 6.5784 77.1282C4.40092 76.2589 2.69199 74.822 2.22614 72.5294C1.9609 71.2241 2.38177 70.1525 3.39849 68.8967C3.91677 68.2566 4.56478 67.6012 5.32032 66.8656C5.49084 66.6996 5.6665 66.5299 5.84621 66.3562L5.85316 66.3495L5.85556 66.3472C6.45809 65.7649 7.10836 65.1365 7.76358 64.4577C11.2421 60.8538 14.9326 55.7482 14.9326 46.3814C14.9326 32.2912 22.6069 19.9825 26.4152 15.6344C34.6048 6.29544 46.1919 2.12811 59.9018 2.12811C84.8064 2.12811 104.817 19.7249 105.811 44.1123C106.497 60.9259 98.4644 74.8457 86.9969 82.9721L86.4704 83.3452L86.5574 83.9807C87.4987 90.8519 89.0993 101.255 90.8429 110.133C91.714 114.569 92.6254 118.647 93.5132 121.721C93.8867 123.014 94.8712 125.884 95.437 127.348C95.5913 127.748 95.9783 128 96.4066 128C97.1594 128 97.6848 127.254 97.4315 126.545C96.8233 124.843 95.8657 122.131 95.578 121.135C94.7158 118.15 93.8183 114.142 92.9511 109.727C91.2703 101.168 89.7202 91.1666 88.7725 84.3246C100.514 75.7542 108.663 61.3378 107.957 44.0263C106.912 18.3977 85.8547 0 59.9018 0Z" fill="#B71F27"/>
</svg>
