<svg width="110" height="140" viewBox="0 0 110 140" fill="none" xmlns="http://www.w3.org/2000/svg">
<path d="M57.2969 81.1182C58.0821 80.8927 58.8532 80.6339 59.6084 80.3436V78.3949C59.6084 78.2216 59.5697 78.0573 59.5005 77.91C58.7821 78.2117 58.0469 78.4818 57.2969 78.7187V81.1182Z" fill="#B71F27"/>
<path fill-rule="evenodd" clip-rule="evenodd" d="M99.9224 89.0499C100.979 89.0499 102.178 90.1837 102.178 92.0491V105.902H104.278V98.4317L105.501 100.357C107.637 103.72 107.379 108.535 104.944 111.517L99 118.797L98.7909 119.053C98.4924 119.419 98.3504 119.877 98.3504 120.32V131.884V138.95C98.3504 139.53 98.8205 140 99.4004 140C99.9803 140 100.45 139.53 100.45 138.95V120.341L106.571 112.845C109.597 109.139 109.879 103.333 107.274 99.2308L104.278 94.5144V92.0491C104.278 89.442 102.517 86.95 99.9224 86.95H99.7484C98.418 86.95 97.3187 87.6294 96.5816 88.6405C95.9444 87.6447 94.9265 86.95 93.6583 86.95C92.3344 86.95 91.2833 87.707 90.6533 88.7733C90.0921 88.1831 89.3369 87.8024 88.4382 87.8024C87.1406 87.8024 86.1425 88.5958 85.5951 89.6676C85.1375 89.3043 84.5702 89.0811 83.9141 89.0811C82.0881 89.0811 80.95 90.8098 80.95 92.4754V110.752C80.95 111.093 81.0338 111.44 81.2069 111.748L84.7781 118.111V138.95C84.7781 139.53 85.2482 140 85.8281 140C86.408 140 86.8781 139.53 86.8781 138.95V118.097C86.8781 117.746 86.7878 117.401 86.6157 117.094L83.05 110.742V98.7804V98.1149V96.437V96.0128V92.4754C83.05 91.5515 83.6258 91.1811 83.9141 91.1811C84.2023 91.1811 84.7781 91.5515 84.7781 92.4754V94.7795V96.789V96.9508H86.8781V95.9737V92.6885H87.2261V92.0012V91.6229C87.2261 90.4637 87.9577 89.9024 88.4382 89.9024C88.4691 89.9024 88.501 89.9047 88.5338 89.9094C89.0097 89.9772 89.6502 90.5383 89.6502 91.6229V92.5318V95.6721H91.7502V91.836H92.0982V91.1967C92.0982 89.802 92.9857 89.0499 93.6583 89.0499C94.3309 89.0499 95.2183 89.802 95.2183 91.1967V94.8196H97.3183V91.836H97.6663C97.6663 90.0883 98.7875 89.0499 99.7484 89.0499H99.9224Z" fill="#B71F27"/>
<path fill-rule="evenodd" clip-rule="evenodd" d="M49.5232 0.750255C39.2275 -1.90513 29.0902 2.79552 21.8246 10.0112C19.358 12.4609 18.0051 15.8808 17.2563 19.5705C16.5057 23.2692 16.3383 27.3621 16.3383 31.2723C16.3383 33.0654 16.3722 34.7868 16.4045 36.4252C16.4442 38.4354 16.4814 40.3206 16.4504 42.0602C16.4228 43.6097 16.3401 44.9584 16.1637 46.0652C15.9839 47.1925 15.7229 47.9566 15.4133 48.4178C15.2856 48.608 15.1371 48.8261 14.9707 49.0707C12.8392 52.2022 7.76326 59.6598 5.7383 68.1273C4.64191 72.7119 4.41819 77.6708 6.09322 82.4405C7.77564 87.2313 11.332 91.7115 17.5763 95.3863C18.1254 95.7095 18.8344 95.5294 19.1598 94.9841C19.4852 94.4387 19.3038 93.7346 18.7547 93.4114C12.9129 89.9734 9.75479 85.896 8.27581 81.6845C6.78944 77.4521 6.9574 72.9642 7.98726 68.6578C9.90875 60.6229 14.7548 53.4925 16.8934 50.3456C17.058 50.1034 17.2066 49.8848 17.3366 49.6911C17.9223 48.8187 18.2488 47.6656 18.4467 46.4243C18.6479 45.1625 18.7332 43.691 18.7615 42.1008C18.7925 40.3604 18.7542 38.3719 18.7143 36.2966C18.6826 34.6496 18.6498 32.9479 18.6498 31.2723C18.6498 27.4029 18.8181 23.4938 19.5223 20.0241C20.2283 16.5454 21.4493 13.6304 23.4591 11.6345C30.4516 4.69005 39.8923 0.519285 49.1956 3.03917L49.4762 3.11517L49.7596 3.05022C55.3278 1.77413 63.1996 2.32666 69.8217 5.6042C76.3858 8.85304 81.6845 14.7493 82.3672 24.2412C82.7769 29.9375 82.9986 34.6062 83.1838 38.5053L83.2329 39.5371C83.4282 43.6238 83.5976 46.8674 83.9403 49.5332C84.2841 52.2082 84.8101 54.3741 85.7547 56.2958C86.7053 58.2294 88.0454 59.8467 89.9211 61.4767C91.3985 62.7605 92.4038 65.1469 92.8235 68.333C93.2379 71.4795 93.0543 75.2168 92.3441 78.9604C91.6343 82.7019 90.4087 86.3958 88.779 89.4588C88.6981 89.6109 88.6164 89.7611 88.5338 89.9094C89.0097 89.9772 89.6502 90.5383 89.6502 91.6229V92.5318C90.0638 91.8922 90.4548 91.2229 90.8228 90.5313C92.5783 87.2317 93.8706 83.3126 94.6156 79.3855C95.3602 75.4605 95.5683 71.4737 95.1154 68.0353C94.6678 64.6364 93.5469 61.5771 91.4432 59.749C89.7379 58.2671 88.616 56.8837 87.832 55.2887C87.042 53.6817 86.5608 51.7911 86.2332 49.2425C85.9044 46.6848 85.7382 43.538 85.5418 39.4283L85.4926 38.3947C85.3075 34.496 85.0846 29.8023 84.6729 24.0777C83.9231 13.6537 78.031 7.10241 70.8528 3.54959C63.8426 0.0799799 55.5707 -0.558481 49.5232 0.750255ZM84.7781 94.7795C85.6393 94.0249 86.4592 93.0889 87.2261 92.0012V92.6885H86.8781V95.9737C86.5064 96.3353 86.1227 96.6725 85.7271 96.9824C85.1971 97.3977 84.6457 97.7639 84.0735 98.0739C83.7449 98.2519 83.3675 98.255 83.05 98.1149C82.826 98.0161 82.6318 97.846 82.5054 97.6159C82.1998 97.0593 82.4062 96.3621 82.9666 96.0586C82.9944 96.0435 83.0222 96.0282 83.05 96.0128V96.437L84.7781 96.789V94.7795ZM55.6476 36.2775C59.0971 34.142 60.7802 31.966 61.4506 30.4189C61.7043 29.8333 62.2958 29.3946 62.9273 29.4877C63.5606 29.581 63.9945 30.1701 63.987 30.8102C63.9661 32.5906 64.4159 34.8975 65.8167 36.995C67.5138 39.5364 70.6947 41.9024 76.4927 42.5799C77.1266 42.6539 77.5801 43.2244 77.5055 43.8539C77.4309 44.4835 76.8565 44.9338 76.2226 44.8598C69.8449 44.1146 66.013 41.4424 63.8903 38.2638C62.9271 36.8215 62.3341 35.3022 62.007 33.8575C60.8424 35.3032 59.1607 36.8078 56.8703 38.2256C52.1421 41.1527 44.72 43.7836 33.4963 44.8623C32.861 44.9234 32.2961 44.4613 32.2346 43.8304C32.1731 43.1994 32.6383 42.6384 33.2736 42.5773C44.2525 41.5222 51.3038 38.9666 55.6476 36.2775Z" fill="#B71F27"/>
<path fill-rule="evenodd" clip-rule="evenodd" d="M22.6419 42.5719C23.2802 42.5719 23.7977 43.0858 23.7977 43.7197V54.389C23.7977 64.4865 29.7014 73.2146 38.2679 77.3545C38.7898 77.6067 39.3215 77.8419 39.8624 78.0593C42.8386 79.2556 46.0917 79.9144 49.4998 79.9144C52.218 79.9144 54.8377 79.4953 57.2969 78.7187V81.1182C54.8217 81.829 52.2056 82.21 49.4998 82.21C46.1323 82.21 42.9035 81.6199 39.9126 80.5381V81.2309C39.9126 85.6352 38.4726 89.9104 35.8247 93.42L44.5185 102.054C46.7753 104.295 50.4342 104.295 52.691 102.054L61.3848 93.42C58.7369 89.9104 57.2969 85.6352 57.2969 81.2309V81.1182C58.0821 80.8927 58.8532 80.6339 59.6084 80.3436V81.2309C59.6084 85.317 61.0056 89.2778 63.5646 92.4675L83.05 96.437L84.7781 96.789L85.7271 96.9824C85.1971 97.3977 84.6457 97.7639 84.0735 98.0739C83.7449 98.2519 83.3675 98.255 83.05 98.1149V98.7804L63.3062 94.7583L54.3255 103.677C51.166 106.815 46.0435 106.815 42.884 103.677L33.9089 94.7639L13.2496 99.2C6.86691 100.571 2.31152 106.177 2.31152 112.663V138.852C2.31152 139.486 1.79407 140 1.15576 140C0.517452 140 0 139.486 0 138.852V112.663C0 105.096 5.31461 98.5552 12.7611 96.9562L33.6406 92.4728C36.2023 89.2822 37.6011 85.3193 37.6011 81.2309V79.583C28.079 75.1398 21.4861 65.529 21.4861 54.389V43.7197C21.4861 43.0858 22.0036 42.5719 22.6419 42.5719ZM98.3504 131.884C98.735 131.698 99 131.306 99 130.852V118.797L98.7909 119.053C98.4924 119.419 98.3504 119.877 98.3504 120.32V131.884ZM59.6084 80.3436V78.3949C59.6084 78.2216 59.5697 78.0573 59.5005 77.91C68.7274 74.036 75.202 64.9634 75.202 54.389V43.7197C75.202 43.0858 75.7194 42.5719 76.3577 42.5719C76.996 42.5719 77.5135 43.0858 77.5135 43.7197V54.389C77.5135 66.2145 70.0844 76.3167 59.6084 80.3436Z" fill="#B71F27"/>
<path fill-rule="evenodd" clip-rule="evenodd" d="M54.4373 61.6642H44.5627C43.0012 61.6642 41.7353 62.9208 41.7353 64.471V64.5547C41.7353 68.8118 45.2117 72.2628 49.5 72.2628C53.7883 72.2628 57.2647 68.8118 57.2647 64.5547V64.471C57.2647 62.9208 55.9989 61.6642 54.4373 61.6642ZM44.5627 63.5912C44.0732 63.5912 43.6765 63.9851 43.6765 64.471V64.5547C43.6765 67.7475 46.2838 70.3358 49.5 70.3358C52.7163 70.3358 55.3235 67.7475 55.3235 64.5547V64.471C55.3235 63.9851 54.9268 63.5912 54.4373 63.5912H44.5627Z" fill="#B71F27"/>
</svg>
