<svg width="115" height="133" viewBox="0 0 115 133" fill="none" xmlns="http://www.w3.org/2000/svg">
<path fill-rule="evenodd" clip-rule="evenodd" d="M81.3007 46.6412C84.1103 49.1773 85.8115 52.7153 86.0383 56.4934L87.3761 78.7807C87.6313 83.0328 88.873 87.1671 91.0029 90.8562L89.2582 91.8635C86.972 87.9036 85.6391 83.4657 85.3651 78.9014L84.0274 56.6141C83.8322 53.3632 82.3683 50.3189 79.9508 48.1367L66.9588 36.409L66.2157 35.7381L67.5282 34.2841L67.5656 34.2427L81.3007 46.6412ZM50.573 41.8601C55.2989 41.0254 59.8397 44.0747 60.8552 48.7651L61.1712 50.225L62.1033 54.5301L67.1506 77.8432L65.1817 78.2695L60.9632 58.785L60.0311 54.4798L58.8862 49.1914C58.2184 46.107 55.5821 43.9389 52.561 43.7508C52.0243 43.7174 51.4755 43.7465 50.9234 43.844C50.7162 43.8806 50.5128 43.9261 50.3135 43.9799C46.8412 44.9184 44.6279 48.4064 45.3428 52.0032L47.5366 63.0409L47.9715 65.2292L50.446 77.6791C50.8967 79.9468 50.9388 82.2767 50.5702 84.5591C50.2749 86.3872 50.2754 88.19 50.5347 89.921C50.5485 90.0133 50.5631 90.1053 50.5784 90.1972C50.785 91.4383 51.1249 92.6409 51.5843 93.7875C52.3248 95.6353 53.3758 97.3379 54.6797 98.8223C57.5731 102.116 61.7121 104.336 66.4687 104.686L66.6965 104.703L66.5484 106.712L66.3206 106.695C61.621 106.349 57.4617 104.367 54.3293 101.366C53.7206 100.783 53.1507 100.162 52.6231 99.506C51.9351 98.6511 51.3191 97.7383 50.7831 96.7778C50.2696 95.8579 49.8296 94.8941 49.4698 93.8954C49.1732 93.0722 48.9312 92.2253 48.7477 91.3596C48.5747 90.5437 48.4536 89.7112 48.3877 88.8661C48.2699 87.3557 48.3283 85.8052 48.5813 84.2379C48.9117 82.1923 48.874 80.1042 48.4701 78.0718L43.3669 52.3959C42.3908 47.4849 45.6422 42.7311 50.573 41.8601Z" fill="#B71F27"/>
<path fill-rule="evenodd" clip-rule="evenodd" d="M35.5635 14.3065C32.0328 16.3449 27.6701 15.6368 24.9494 12.845C24.4526 12.3352 24.0105 11.7559 23.6383 11.1111C23.5753 11.0021 23.515 10.8922 23.4572 10.7816L22.7062 13.3302C22.6882 13.307 22.6704 13.2837 22.6526 13.2604C23.1472 13.9109 23.7059 14.4918 24.3145 14.9994C27.6758 17.8025 32.5596 18.367 36.5708 16.0511C40.5027 13.781 42.457 9.4009 41.8291 5.16673C41.7169 4.4101 41.5223 3.65812 41.2417 2.92369L38.6727 2.23531C38.7018 2.28359 38.7305 2.33225 38.7588 2.38129C39.1675 3.08914 39.4658 3.83044 39.659 4.58524C40.6055 8.2828 39.031 12.3045 35.5635 14.3065Z" fill="#B71F27"/>
<path d="M11.8896 96.2037L14.3179 96.902C14.8933 96.3997 15.4056 95.8439 15.8514 95.2467L13.7454 94.6411C13.2145 95.2334 12.594 95.7615 11.8896 96.2037Z" fill="#B71F27"/>
<path d="M47.6136 100.823C47.1275 102.637 45.2477 103.699 43.4425 103.18L35.4982 100.896C35.6918 101.62 35.9824 102.331 36.3749 103.01C36.4302 103.106 36.4871 103.2 36.5454 103.293L42.8858 105.117C45.774 105.947 48.7817 104.247 49.5596 101.344L50.7831 96.7778C50.2696 95.8579 49.8296 94.8941 49.4698 93.8954L47.6136 100.823Z" fill="#B71F27"/>
<path d="M39.5702 91.0851C42.5306 89.376 46.0758 89.5977 48.7477 91.3596C48.5747 90.5437 48.4536 89.7112 48.3877 88.8661C45.3373 87.4803 41.6857 87.5375 38.563 89.3405C34.6179 91.6181 32.6637 96.0199 33.3109 100.267L35.4982 100.896C34.5028 97.174 36.0746 93.1033 39.5702 91.0851Z" fill="#B71F27"/>
<path d="M50.5784 90.1972C50.785 91.4383 51.1249 92.6409 51.5843 93.7875L52.1417 91.7074C51.6673 91.145 51.1427 90.6407 50.5784 90.1972Z" fill="#B71F27"/>
<path d="M36.5454 103.293C36.4871 103.2 36.4302 103.106 36.3749 103.01C35.9824 102.331 35.6918 101.62 35.4982 100.896L33.3109 100.267C33.4277 101.034 33.6293 101.795 33.9191 102.538L36.5454 103.293Z" fill="#B71F27"/>
<path d="M16.5472 83.4414C14.283 79.5195 9.91967 77.5652 5.69573 78.1781L5.05258 80.3605C8.75803 79.3984 12.7954 80.9721 14.8026 84.4486C16.7387 87.8022 16.197 91.9064 13.7454 94.6411L15.8514 95.2467C18.3426 91.9095 18.7615 87.2766 16.5472 83.4414Z" fill="#B71F27"/>
<path d="M2.64903 81.3897C2.72421 81.3433 2.80032 81.2978 2.87739 81.2533C3.57625 80.8498 4.3077 80.5539 5.05258 80.3605L5.69573 78.1781C4.92845 78.2895 4.16576 78.4855 3.42109 78.7699L2.64903 81.3897Z" fill="#B71F27"/>
<path d="M5.10016 92.1552C3.30969 91.6404 2.28072 89.7663 2.80736 87.9792L5.05258 80.3605C4.3077 80.5539 3.57625 80.8498 2.87739 81.2533C2.80032 81.2978 2.72421 81.3433 2.64903 81.3897L0.87494 87.4097C0.0323193 90.269 1.67868 93.2676 4.54343 94.0913L11.8896 96.2037C12.594 95.7615 13.2145 95.2334 13.7454 94.6411L5.10016 92.1552Z" fill="#B71F27"/>
<path d="M24.3145 14.9994C23.7277 14.5101 23.1874 13.9526 22.7062 13.3302L3.42109 78.7699C4.16576 78.4855 4.92845 78.2895 5.69573 78.1781L24.3145 14.9994Z" fill="#B71F27"/>
<path d="M14.3179 96.902L33.9191 102.538C33.6293 101.795 33.4277 101.034 33.3109 100.267L15.8514 95.2467C15.4056 95.8439 14.8933 96.3997 14.3179 96.902Z" fill="#B71F27"/>
<path d="M66.9588 36.409L66.2157 35.7381L67.5282 34.2841L69.6948 26.1981C68.9631 26.4624 68.2152 26.6423 67.4637 26.7412L61.1712 50.225L62.1033 54.5301L66.9588 36.409Z" fill="#B71F27"/>
<path d="M68.04 24.5904C64.392 25.4426 60.4665 23.8634 58.4965 20.4514C56.4945 16.9838 57.1418 12.7137 59.8103 9.98477L57.6402 9.40328C54.9793 12.7562 54.4817 17.5267 56.7518 21.4587C58.9911 25.3372 63.2835 27.2915 67.4637 26.7412L68.04 24.5904Z" fill="#B71F27"/>
<path d="M67.4637 26.7412C68.2152 26.6423 68.9631 26.4624 69.6948 26.1981L70.3707 23.676C69.6226 24.1013 68.8379 24.404 68.04 24.5904L67.4637 26.7412Z" fill="#B71F27"/>
<path d="M67.8969 12.1516C69.6881 12.6315 70.751 14.4726 70.2711 16.2638L68.04 24.5904C68.8379 24.404 69.6226 24.1013 70.3707 23.676L72.217 16.7852C72.9849 13.9193 71.2842 10.9735 68.4183 10.2056L61.8394 8.44283C61.7901 8.47009 61.7409 8.49787 61.6919 8.52618C60.984 8.93486 60.355 9.4277 59.8103 9.98477L67.8969 12.1516Z" fill="#B71F27"/>
<path d="M57.6402 9.40328L59.8103 9.98477C60.355 9.4277 60.984 8.93486 61.6919 8.52618C61.7409 8.49787 61.7901 8.47009 61.8394 8.44283L59.2704 7.75446C58.6602 8.25022 58.1156 8.80412 57.6402 9.40328Z" fill="#B71F27"/>
<path d="M57.6402 9.40328C58.1156 8.80412 58.6602 8.25022 59.2704 7.75446L41.2417 2.92369C41.5223 3.65812 41.7169 4.4101 41.8291 5.16673L57.6402 9.40328Z" fill="#B71F27"/>
<path d="M27.356 4.6786C27.8711 2.93096 29.6859 1.91295 31.4457 2.38451L39.659 4.58524C39.4658 3.83044 39.1675 3.08914 38.7588 2.38129C38.7305 2.33225 38.7018 2.28359 38.6727 2.23531L31.9672 0.438573C29.1514 -0.315915 26.2477 1.3129 25.4236 4.10912L23.4572 10.7816C23.515 10.8922 23.5753 11.0021 23.6383 11.1111C24.0105 11.7559 24.4526 12.3352 24.9494 12.845L27.356 4.6786Z" fill="#B71F27"/>
<path fill-rule="evenodd" clip-rule="evenodd" d="M112.039 110.503L107.338 102.361C106.411 100.755 104.357 100.205 102.751 101.132L101.552 101.824C101.466 101.62 101.366 101.419 101.252 101.222L100.581 100.059L101.744 99.3875C104.314 97.904 107.599 98.7844 109.083 101.354L113.783 109.496C115.267 112.065 114.386 115.351 111.817 116.834L85.0653 132.279C82.4958 133.763 79.2102 132.882 77.7267 130.313L73.026 122.171C72.6698 121.554 72.4499 120.896 72.3569 120.231C71.8278 119.818 71.3676 119.299 71.0114 118.682L66.3108 110.54C64.8273 107.971 65.7076 104.685 68.2771 103.201L89.2132 91.114C91.7827 89.6305 95.0683 90.5108 96.5518 93.0803L100.581 100.059L98.8363 101.066L94.8071 94.0876C93.8799 92.4817 91.8265 91.9315 90.2205 92.8587L69.2844 104.946C67.6785 105.873 67.1282 107.927 68.0554 109.533L72.6737 117.532C73.1016 116.433 73.8921 115.468 74.9924 114.833L98.8363 101.066L99.5078 102.229C99.6228 102.429 99.7151 102.635 99.7854 102.845L75.9997 116.577C75.0483 117.127 74.4675 118.071 74.3447 119.084C74.2603 119.78 74.3928 120.509 74.7707 121.164L74.8531 121.307L79.4714 129.306C80.3986 130.912 82.452 131.462 84.058 130.535L110.81 115.09C112.416 114.162 112.966 112.109 112.039 110.503Z" fill="#B71F27"/>
<path d="M99.7854 102.845L101.552 101.824C101.466 101.62 101.366 101.419 101.252 101.222L100.581 100.059L98.8363 101.066L99.5078 102.229C99.6228 102.429 99.7151 102.635 99.7854 102.845Z" fill="#B71F27"/>
<path fill-rule="evenodd" clip-rule="evenodd" d="M45.781 64.237C39.0361 68.1312 30.4114 65.8202 26.5172 59.0753C22.6231 52.3304 24.934 43.7057 31.679 39.8115C38.0812 36.1152 46.1771 38.0096 50.3135 43.9799C50.5128 43.9261 50.7162 43.8806 50.9234 43.844C51.4755 43.7465 52.0243 43.7174 52.561 43.7508C48.0525 36.2087 38.308 33.6581 30.6717 38.0669C22.9632 42.5174 20.3221 52.3741 24.7726 60.0826C29.2231 67.7911 39.0798 70.4322 46.7883 65.9817C47.1971 65.7457 47.5916 65.4945 47.9715 65.2292L47.5366 63.0409C46.9902 63.4766 46.4046 63.877 45.781 64.237Z" fill="#B71F27"/>
</svg>
