<svg width="114" height="111" viewBox="0 0 114 111" fill="none" xmlns="http://www.w3.org/2000/svg">
<path d="M59.45 108.502H61.7516C60.9474 106.585 59.0532 105.239 56.8446 105.239C54.6361 105.239 52.7419 106.585 51.9376 108.502H54.2393C54.8472 107.733 55.7883 107.239 56.8446 107.239C57.901 107.239 58.8421 107.733 59.45 108.502Z" fill="#B71F27"/>
<path d="M54.2393 108.502H51.9376C51.6887 109.095 51.5428 109.822 51.5257 110.502C51.526 110.475 51.525 110.528 51.5257 110.502H53.5259C53.5385 109.747 53.8032 109.053 54.2393 108.502Z" fill="#B71F27"/>
<path d="M61.7516 108.502H59.45C59.8861 109.053 60.1507 109.747 60.1634 110.502H62.1636C62.1562 109.793 62.0103 109.118 61.7516 108.502Z" fill="#B71F27"/>
<path d="M111.175 106.502C111.175 107.606 110.28 108.502 109.175 108.502H61.7516C62.0103 109.118 62.1562 109.793 62.1636 110.502H109.175C111.384 110.502 113.175 108.711 113.175 106.502V40.071C113.175 37.8619 111.384 36.071 109.175 36.071H105.387C105.396 36.18 105.401 36.2899 105.401 36.4003V38.071H109.175C110.28 38.071 111.175 38.9665 111.175 40.071V106.502Z" fill="#B71F27"/>
<path d="M2 40.071C2 38.9665 2.89543 38.071 4 38.071H7.7749V36.4003C7.7749 36.2899 7.77948 36.18 7.78851 36.071H4C1.79086 36.071 0 37.8619 0 40.071V106.502C0 108.711 1.79086 110.502 4 110.502H51.5257C51.526 110.475 51.525 110.528 51.5257 110.502C51.5428 109.822 51.6887 109.095 51.9376 108.502H4C2.89543 108.502 2 107.606 2 106.502V40.071Z" fill="#B71F27"/>
<path d="M56.871 103.944L57.4896 103.4C57.9565 102.99 58.5003 102.56 59.1177 102.119H54.3382C55.0396 102.572 55.6683 103.016 56.2189 103.441L56.871 103.944Z" fill="#B71F27"/>
<path fill-rule="evenodd" clip-rule="evenodd" d="M30.109 3.78884C30.109 1.31644 32.3947 -0.652865 34.9032 0.203667C38.826 1.54314 45.2821 4.47355 50.1277 10.3164C53.3466 14.1976 55.254 20.2202 56.3622 25.1387C56.9216 27.6214 57.2869 29.8685 57.5125 31.495C57.5482 31.7525 57.5804 31.9946 57.6094 32.2197L57.7817 32.0725C58.7985 31.2061 60.2325 30.0197 61.9025 28.7386C65.2215 26.1924 69.5511 23.2108 73.414 21.6653C80.0241 19.0207 90.0732 18.4446 94.9493 18.3195C97.1737 18.2625 98.9256 20.0666 98.9256 22.2457V31.2034C100.676 31.8452 102.071 32.4081 103.065 32.8277C104.412 33.3969 105.271 34.664 105.387 36.071H104.369V38.071H105.401V100.119C105.401 102.329 103.61 104.119 101.401 104.119H11.7749C9.56576 104.119 7.7749 102.329 7.7749 100.119V38.071V36.4003C7.7749 36.2899 7.77948 36.18 7.78851 36.071C7.90515 34.6634 8.76509 33.396 10.1124 32.8271C11.8994 32.0724 14.984 30.8545 19.0997 29.5482V10.5968C19.0997 7.83275 21.8362 5.90173 24.4404 6.82819L30.109 8.84486V3.78884ZM96.9256 30.4919V22.2457C96.9256 21.145 96.055 20.2918 95.0006 20.3189C90.0982 20.4446 80.391 21.028 74.157 23.5222C70.563 24.96 66.4145 27.7979 63.1198 30.3254C61.483 31.5811 60.0762 32.745 59.0789 33.5948C58.5804 34.0195 58.1848 34.3653 57.9146 34.6042L57.8296 34.6795V100.459L57.9973 100.318C59.1489 99.3493 60.7752 98.0236 62.6758 96.5947C66.4559 93.7527 71.4001 90.4416 75.8768 88.7612C81.7022 86.5747 90.3553 86.0905 94.8486 85.9872C96.004 85.9607 96.9256 85.0253 96.9256 83.9074V32.6099V30.4919ZM102.287 34.6702C101.453 34.3181 100.323 33.8598 98.9256 33.3363V83.9074C98.9256 86.1496 97.0983 87.9361 94.8945 87.9867C90.3834 88.0904 82.0488 88.5809 76.5797 90.6337C73.5304 91.7782 70.1858 93.7623 67.1458 95.8437C75.9354 92.7335 88.548 91.369 103.401 96.8014V36.4003C103.401 35.6275 102.961 34.9551 102.287 34.6702ZM59.1177 102.119C66.0747 97.1596 82.3828 90.9793 103.401 98.9354V100.119C103.401 101.224 102.505 102.119 101.401 102.119H59.1177ZM54.3382 102.119H59.1177C58.5003 102.56 57.9565 102.99 57.4896 103.4L56.871 103.944L56.2189 103.441C55.6683 103.016 55.0396 102.572 54.3382 102.119ZM54.3382 102.119H11.7749C10.6703 102.119 9.7749 101.224 9.7749 100.119V99.1191C28.7755 90.605 46.3156 96.9392 54.3382 102.119ZM53.8001 99.452C44.9102 94.3334 28.0473 89.1207 9.7749 96.9358V36.4003C9.7749 35.6282 10.2152 34.9546 10.8904 34.6695C12.5414 33.9723 15.3536 32.8591 19.0997 31.6482V71.7158C19.0997 73.5337 20.3132 75.1065 22.0285 75.6237C24.2656 76.2983 27.9355 77.4925 31.7552 79.1033C35.5899 80.7204 39.5055 82.7287 42.2795 85.0112C45.7253 87.8464 49.1374 92.3465 51.7142 96.1995C52.5 97.3747 53.2031 98.4818 53.8001 99.452ZM21.0997 71.7158V31.0209V28.9319V10.5968C21.0997 9.21478 22.468 8.24927 23.77 8.71249L30.109 10.9677V64.933C30.109 66.6847 31.239 68.2056 32.8372 68.8027C34.7722 69.5257 37.822 70.7774 40.8891 72.4866C43.9717 74.2044 46.9908 76.3402 48.9379 78.8031C51.8755 82.5191 53.6183 88.4288 54.6169 93.5453C54.9479 95.2415 55.1936 96.8304 55.3739 98.1939C54.794 97.2564 54.122 96.2023 53.3767 95.0877C50.7782 91.2021 47.233 86.497 43.5503 83.4668C40.5518 80.9996 36.425 78.902 32.5323 77.2604C28.6245 75.6125 24.8819 74.3952 22.606 73.7089C21.7099 73.4387 21.0997 72.6254 21.0997 71.7158ZM55.8296 34.2771L55.827 34.2494L55.8175 34.1485C55.8064 34.0341 55.7893 33.8638 55.7652 33.6434C55.7171 33.2027 55.6414 32.5623 55.5314 31.7697C55.3115 30.1836 54.9553 27.9935 54.4112 25.5783C53.3122 20.701 51.4839 15.0846 48.5883 11.5931C44.0757 6.1518 38.0116 3.37847 34.2569 2.09637C33.2125 1.73975 32.109 2.50697 32.109 3.78884V64.933C32.109 65.805 32.6777 66.6081 33.5372 66.9292C35.5262 67.6724 38.6768 68.9642 41.8626 70.7395C45.0329 72.5062 48.3193 74.7957 50.5068 77.5628C53.0757 80.8122 54.745 85.4349 55.8296 89.7747V34.2771Z" fill="#B71F27"/>
<path d="M104.369 36.071V38.071H105.401V36.4003C105.401 36.2899 105.396 36.18 105.387 36.071H104.369Z" fill="#B71F27"/>
</svg>
