<svg width="24" height="24" viewBox="0 0 24 24" fill="none" xmlns="http://www.w3.org/2000/svg">
<path fill-rule="evenodd" clip-rule="evenodd" d="M11.9999 24C18.6273 24 23.9999 18.6274 23.9999 12C23.9999 5.37258 18.6273 0 11.9999 0C5.37246 0 -0.00012207 5.37258 -0.00012207 12C-0.00012207 18.6274 5.37246 24 11.9999 24ZM10.5652 11.3143V17.4545H12.6535V11.3143H14.6483V9.72468H12.6535V9.14805C12.6535 8.67013 12.747 8.30649 12.934 8.05714C13.121 7.80779 13.3912 7.68312 13.7444 7.68312C13.9314 7.68312 14.1288 7.71428 14.3366 7.77662C14.5444 7.82857 14.7262 7.8961 14.8821 7.97922L15.3029 6.40519C14.9704 6.24935 14.6327 6.12987 14.2899 6.04675C13.9574 5.96364 13.6249 5.92208 13.2925 5.92208C12.7418 5.92208 12.2587 6.05714 11.8431 6.32727C11.4379 6.5974 11.121 6.98182 10.8925 7.48052C10.6743 7.96883 10.5652 8.55065 10.5652 9.22597V9.72468H9.48987V11.3143H10.5652Z" fill="#005AC5"/>
</svg>
