<svg width="25" height="25" viewBox="0 0 25 25" fill="none" xmlns="http://www.w3.org/2000/svg">
<path fill-rule="evenodd" clip-rule="evenodd" d="M24.2424 12.0054C24.2424 18.6328 18.8156 24.0054 12.1212 24.0054C5.42685 24.0054 0 18.6328 0 12.0054C0 8.58599 1.44462 5.50065 3.7626 3.31489L4.44467 2.71817C5.48254 1.87638 6.66406 1.20174 7.9473 0.73579L8.82099 0.455524C9.87021 0.162271 10.9772 0.00537109 12.1212 0.00537109C13.2885 0.00537109 14.4172 0.168719 15.4854 0.473585L16.3286 0.748011C17.6052 1.21582 18.7806 1.89037 19.8131 2.73062L20.4942 3.32842C22.8038 5.51338 24.2424 8.59304 24.2424 12.0054ZM12.1212 23.0054C18.2577 23.0054 23.2323 18.0805 23.2323 12.0054C23.2323 5.93024 18.2577 1.00537 12.1212 1.00537C5.98472 1.00537 1.0101 5.93024 1.0101 12.0054C1.0101 18.0805 5.98472 23.0054 12.1212 23.0054Z" fill="#B71F27"/>
<path fill-rule="evenodd" clip-rule="evenodd" d="M10.0787 5.68958H14.7438C18.0214 5.68958 18.6313 6.21829 18.6313 9.32445V13.6863C18.6313 16.7509 18.0214 17.3212 14.7438 17.3212H10.0787C6.80105 17.3212 6.19112 16.7509 6.19112 13.6863V9.32445C6.19112 6.25986 6.23558 5.68958 10.0787 5.68958ZM7.91859 11.8475C7.91859 9.39139 9.92999 7.40011 12.4109 7.40011C14.8918 7.40011 16.9032 9.39139 16.9032 11.8475C16.9032 14.3036 14.8918 16.2948 12.4109 16.2948C9.92999 16.2948 7.91859 14.3036 7.91859 11.8475ZM17.8823 7.3716C17.8823 7.92267 17.431 8.36941 16.8744 8.36941C16.3177 8.36941 15.8665 7.92267 15.8665 7.3716C15.8665 6.82053 16.3177 6.37379 16.8744 6.37379C17.431 6.37379 17.8823 6.82053 17.8823 7.3716Z" fill="#B71F27"/>
<path fill-rule="evenodd" clip-rule="evenodd" d="M8.60971 11.8475C8.60971 9.76927 10.3117 8.08432 12.4109 8.08432C14.5101 8.08432 16.2121 9.76927 16.2121 11.8475C16.2121 13.9257 14.5101 15.6106 12.4109 15.6106C10.3117 15.6106 8.60971 13.9257 8.60971 11.8475ZM12.4109 14.8837C10.7197 14.8837 9.34403 13.5218 9.34403 11.8475C9.34403 10.1721 10.7199 8.81129 12.4109 8.81129C14.1019 8.81129 15.4777 10.1721 15.4777 11.8475C15.4777 13.5218 14.1021 14.8837 12.4109 14.8837Z" fill="#B71F27"/>
<path d="M12.4109 14.1995C11.1014 14.1995 10.0352 13.1439 10.0352 11.8475C10.0352 10.5501 11.1014 9.4955 12.4109 9.4955C13.7204 9.4955 14.7866 10.5501 14.7866 11.8475C14.7866 13.1439 13.7204 14.1995 12.4109 14.1995Z" fill="#B71F27"/>
<path d="M16.5 7.3716C16.5 7.16691 16.6676 7.00099 16.8744 7.00099C17.0811 7.00099 17.2487 7.16691 17.2487 7.3716C17.2487 7.57628 17.0811 7.74221 16.8744 7.74221C16.6676 7.74221 16.5 7.57628 16.5 7.3716Z" fill="#B71F27"/>
<path fill-rule="evenodd" clip-rule="evenodd" d="M23.2323 12.0054C23.2323 18.0805 18.2577 23.0054 12.1212 23.0054C5.98472 23.0054 1.0101 18.0805 1.0101 12.0054C1.0101 5.93024 5.98472 1.00537 12.1212 1.00537C18.2577 1.00537 23.2323 5.93024 23.2323 12.0054ZM10.0787 5.00537H14.7438C15.5723 5.00537 16.2788 5.03794 16.8638 5.1487C17.4538 5.26041 17.9776 5.46189 18.3887 5.84245C18.804 6.22689 19.0323 6.72721 19.1597 7.29868C19.2848 7.86003 19.3224 8.5361 19.3224 9.32445V13.6863C19.3224 14.4648 19.2848 15.1356 19.1596 15.6951C19.0322 16.2645 18.8041 16.7643 18.3912 17.1504C17.9819 17.533 17.4596 17.7397 16.8679 17.8554C16.2816 17.9701 15.5741 18.0054 14.7438 18.0054H10.0787C9.24834 18.0054 8.54085 17.9701 7.95453 17.8554C7.36286 17.7397 6.84049 17.533 6.43125 17.1504C6.01834 16.7643 5.79029 16.2645 5.66287 15.6951C5.53769 15.1356 5.5 14.4648 5.5 13.6863V9.32445C5.5 8.57235 5.50154 7.91269 5.57287 7.3746C5.64502 6.83037 5.79966 6.30677 6.18656 5.893C6.57475 5.47785 7.1068 5.26867 7.72227 5.15414C8.33419 5.04026 9.11215 5.00537 10.0787 5.00537Z" fill="#B71F27"/>
</svg>
