<svg width="80" height="169" viewBox="0 0 80 169" fill="none" xmlns="http://www.w3.org/2000/svg">
<path fill-rule="evenodd" clip-rule="evenodd" d="M41.0187 97.969C41.3318 97.8775 41.6802 97.8324 42.0094 97.8095C42.4781 97.7767 43.0153 97.7828 43.5752 97.8215C44.6911 97.8988 45.9712 98.1115 47.0807 98.4603C47.6355 98.6347 48.1745 98.8515 48.6376 99.1189C49.0886 99.3792 49.5439 99.731 49.835 100.21C50.1547 100.736 50.2398 101.362 49.9981 101.997C49.7782 102.574 49.3218 103.071 48.7493 103.508C47.7766 104.252 46.7596 104.563 45.7527 104.485C45.4088 104.458 45.0795 104.387 44.766 104.282C46.0251 107.713 47.085 112.133 46.9902 116.874C46.8889 121.94 44.3521 126.317 41.8695 130.601C41.7132 130.871 41.5571 131.14 41.4018 131.409C38.7355 136.031 36.2332 140.693 36.2332 146.487C36.2332 155.902 41.4919 164.2 44.0995 167.133L42.6047 168.462C39.7997 165.306 34.2332 156.555 34.2332 146.487C34.2332 140.103 37.008 135.023 39.6695 130.41C39.8008 130.182 39.9316 129.956 40.0617 129.731C42.6149 125.317 44.9 121.366 44.9906 116.834C45.1175 110.489 43.0257 104.724 41.3669 101.447C41.1836 101.186 41.0148 100.922 40.8613 100.664C40.078 101.351 39.0792 102.036 37.969 102.455C36.2414 103.108 34.1547 103.134 32.3403 101.436C31.9296 101.052 31.5714 100.616 31.4158 100.123C31.3328 99.8596 31.3034 99.5657 31.3711 99.2633C31.439 98.9596 31.5908 98.7098 31.775 98.5151C32.1175 98.1529 32.5883 97.9617 32.9917 97.8474C33.4194 97.7262 33.9112 97.6536 34.4209 97.6115C36.3565 97.4516 39.0569 97.6947 41.0187 97.969ZM43.08 100.405C43.4698 100.944 43.9225 101.452 44.415 101.834C44.9287 102.233 45.4304 102.453 45.9076 102.491C46.362 102.526 46.9008 102.404 47.5344 101.92C47.9659 101.59 48.0968 101.37 48.1291 101.285C48.1343 101.271 48.1376 101.269 48.1375 101.266C48.1374 101.264 48.1339 101.262 48.1258 101.249C48.081 101.175 47.9472 101.03 47.6377 100.851C47.3405 100.679 46.9476 100.515 46.4809 100.368C45.5476 100.075 44.4264 99.8853 43.437 99.8168C43.1957 99.8 42.9667 99.7909 42.7543 99.7887C42.8607 99.9837 42.9695 100.189 43.08 100.405ZM38.8315 99.7246C37.3405 99.581 35.7689 99.507 34.5856 99.6047C34.1452 99.6411 33.7938 99.6988 33.5371 99.7716C33.5284 99.7741 33.5198 99.7765 33.5115 99.779C33.564 99.837 33.6283 99.9026 33.7066 99.9759C34.8215 101.019 36.0436 101.045 37.2621 100.584C37.8167 100.375 38.3505 100.068 38.8315 99.7246Z" fill="#282C71"/>
<path fill-rule="evenodd" clip-rule="evenodd" d="M39.9067 96.034C59.7231 96.034 76.8135 75.8864 76.8135 49.6256C76.8135 23.3648 59.7231 3.21729 39.9067 3.21729C20.0904 3.21729 3 23.3648 3 49.6256C3 75.8864 20.0904 96.034 39.9067 96.034ZM39.9067 99.034C61.9466 99.034 79.8135 76.9131 79.8135 49.6256C79.8135 22.3382 61.9466 0.217285 39.9067 0.217285C17.8669 0.217285 0 22.3382 0 49.6256C0 76.9131 17.8669 99.034 39.9067 99.034Z" fill="#B71F27"/>
<path d="M74.8097 49.6255C74.8097 73.7213 59.1829 93.2548 39.9063 93.2548C20.6297 93.2548 5.00293 73.7213 5.00293 49.6255C5.00293 25.5298 20.6297 5.99634 39.9063 5.99634C59.1829 5.99634 74.8097 25.5298 74.8097 49.6255Z" fill="#292D70"/>
<path fill-rule="evenodd" clip-rule="evenodd" d="M39.9053 93.2548C59.1819 93.2548 74.8087 73.7213 74.8087 49.6255C74.8087 25.5298 59.1819 5.99634 39.9053 5.99634C20.6287 5.99634 5.00195 25.5298 5.00195 49.6255C5.00195 51.6466 5.11189 53.6356 5.3247 55.5836C7.64907 76.8607 22.2456 93.2548 39.9053 93.2548ZM50.6807 22.6446C47.7225 24.8252 44.7678 27.2341 42.654 29.2642C43.6307 20.5198 45.0878 13.3635 46.5565 8.79533C51.544 10.1005 56.1612 12.8431 60.0904 16.6906C59.0937 17.1465 57.9228 17.7997 56.6769 18.5645C54.8275 19.6997 52.7396 21.1269 50.6807 22.6446ZM22.5447 24.1332C21.0816 22.366 19.7643 20.6959 18.8162 19.4245C18.5328 19.0444 18.2849 18.7034 18.0774 18.4085C22.4988 13.4755 27.9534 10.0316 33.9098 8.63255C32.2556 13.9541 30.6845 22.22 29.7472 32.0981C27.6298 30.0669 24.9196 27.0018 22.5447 24.1332ZM43.5804 35.6866C46.5463 32.8198 50.6964 29.4075 54.5579 26.5151C56.8322 24.8116 58.9886 23.3018 60.7228 22.2015C61.591 21.6506 62.3413 21.2101 62.9407 20.9006C63.1877 20.7731 63.3926 20.6767 63.5583 20.6055C68.2211 26.6609 71.4611 34.5254 72.5062 43.3911C70.4194 42.5783 67.5378 41.5075 64.2269 40.4185C58.0939 38.4012 50.4198 36.2984 43.5804 35.6866ZM26.5982 36.8201C21.0785 38.0159 15.68 39.6756 11.5299 41.0893C9.96031 41.624 8.56693 42.1243 7.41023 42.5522C8.40778 35.1323 10.9479 28.4421 14.5679 22.9656C14.6912 23.1444 14.8204 23.3285 14.9549 23.5172C15.9552 24.9204 17.2789 26.6172 18.7494 28.3821C21.1925 31.3142 24.0776 34.4782 26.5982 36.8201ZM63.2044 52.1859C66.6695 53.3439 70.3826 54.7677 72.5336 55.6234C71.7115 62.8825 69.4192 69.4777 66.0781 74.9685C65.3433 74.2345 64.4515 73.2987 63.4434 72.2082C61.2465 69.832 58.5194 66.7458 55.7027 63.4688C50.7888 57.7518 45.6318 51.4886 42.5571 47.428C49.2024 47.9601 56.9041 50.0805 63.2044 52.1859ZM25.2423 49.2747C22.9808 52.3759 20.3737 56.9964 18.0915 61.8152C16.1275 65.9619 14.3601 70.348 13.2458 74.148C10.0561 68.6304 7.90519 62.0612 7.19651 54.8622C8.40588 54.4062 9.97641 53.8322 11.8043 53.205C15.5212 51.9297 20.2892 50.4394 25.2423 49.2747ZM60.1368 76.7398C61.1875 77.8756 62.1412 78.845 62.8452 79.5319C58.243 85.1482 52.3619 89.0897 45.8972 90.6151C42.9809 78.7508 41.7121 66.2953 41.4991 54.6113C44.0844 58.0862 48.4321 63.3662 52.6039 68.2291C55.3447 71.4237 58.033 74.4655 60.1368 76.7398ZM28.805 52.4053L28.8665 52.321C28.9472 64.5661 30.1547 77.8022 33.1941 90.44C26.9282 88.7848 21.2492 84.8601 16.7889 79.3267C17.0506 78.3558 17.4281 77.1581 17.8977 75.801C18.9047 72.8914 20.3183 69.2968 21.8708 65.7297C23.424 62.1609 25.1076 58.6392 26.6519 55.8699C27.4249 54.4839 28.1535 53.3035 28.805 52.4053ZM57.6913 20.217C55.8992 21.3171 53.8576 22.7118 51.8313 24.2054C47.7512 27.213 43.8418 30.542 42.146 32.6205L40.1245 35.0981L40.4296 31.9151C41.384 21.9597 42.982 13.6519 44.6567 8.37155C43.1009 8.08398 41.514 7.93541 39.9053 7.93541C38.6153 7.93541 37.3394 8.03095 36.0822 8.21708C34.2812 13.5413 32.4688 22.8165 31.5059 34.1947L31.3502 36.0352L29.9238 34.8616C27.5564 32.9137 23.9897 28.9193 21.051 25.3698C19.5725 23.5838 18.234 21.8874 17.2618 20.5837L16.789 19.9243C16.4378 20.3601 16.0941 20.8058 15.7582 21.2612C15.9818 21.6031 16.2416 21.9817 16.5338 22.3916C17.4982 23.7445 18.7901 25.4018 20.2392 27.1408C23.1452 30.6286 26.6299 34.3813 29.3122 36.6372L30.864 37.9423L28.8739 38.3308C22.8259 39.5113 16.7393 41.3632 12.1551 42.9248C10.1612 43.604 8.45538 44.227 7.16557 44.7136C7.01736 46.3215 6.94103 47.9604 6.94103 49.6255C6.94103 50.7123 6.97354 51.7879 7.03733 52.851C8.17873 52.4254 9.58026 51.9181 11.175 51.3709C15.6048 49.851 21.5438 48.0176 27.5483 46.7794L30.5176 46.1674L28.4516 48.3919C26.0923 50.9096 22.7491 56.5111 19.8439 62.6452C17.5708 67.4447 15.6255 72.445 14.6426 76.3981C14.8679 76.7364 15.0973 77.0701 15.3307 77.399C15.5437 76.7098 15.7905 75.9609 16.0653 75.1669C17.0915 72.2015 18.5243 68.5598 20.0928 64.9559C21.6605 61.3538 23.3722 57.7698 24.9584 54.9254C25.7508 53.5046 26.5213 52.2511 27.2354 51.2667C27.9253 50.3156 28.6415 49.5019 29.3459 49.0909L30.8131 48.2349L30.8041 49.9335C30.7346 63.021 31.9401 77.3572 35.3043 90.9069C36.8119 91.1765 38.3484 91.3157 39.9053 91.3157C41.2854 91.3157 42.6499 91.2054 43.9929 90.9913C40.7838 77.8971 39.558 64.1342 39.5277 51.4784L39.5194 48.0199L41.3243 50.9701C42.9489 53.6257 48.5865 60.5681 54.0756 66.9665C56.8069 70.1502 59.4784 73.1725 61.5603 75.423C62.5411 76.4834 63.3844 77.3651 64.038 78.0094C64.3689 77.5613 64.6922 77.1038 65.0075 76.6373C64.208 75.8479 63.1281 74.7237 62.0195 73.5246C59.8012 71.1251 57.0575 68.0198 54.2322 64.7327C48.5885 58.1667 42.58 50.8301 39.7631 46.9122L38.6187 45.3205L40.5782 45.3771C47.9418 45.5896 56.83 48.0112 63.819 50.3468C67.3261 51.5188 70.546 52.7441 72.7223 53.6098C72.8197 52.3005 72.8696 50.9716 72.8696 49.6255C72.8696 48.2506 72.8176 46.8936 72.716 45.5572C72.4819 45.4642 72.2336 45.3663 71.9718 45.264C69.8978 44.4534 66.9827 43.3662 63.621 42.2605C56.876 40.0419 48.4159 37.7772 41.3542 37.4816L39.2293 37.3926L40.6901 35.8469C43.7426 32.6171 48.8053 28.4013 53.3954 24.9632C55.6953 23.2405 57.8945 21.6996 59.6839 20.5642C60.5775 19.9972 61.3811 19.5236 62.051 19.1777C62.1335 19.1351 62.2158 19.0935 62.2978 19.053C62.0457 18.7585 61.7901 18.469 61.5309 18.1845C60.5916 18.5466 59.2641 19.2516 57.6913 20.217Z" fill="white"/>
<path d="M51.8313 24.2054C53.8576 22.7118 55.8992 21.3171 57.6913 20.217C59.2641 19.2516 60.5916 18.5466 61.5309 18.1845C61.7901 18.469 62.0457 18.7585 62.2978 19.053C62.2158 19.0935 62.1335 19.1351 62.051 19.1777C61.3811 19.5236 60.5775 19.9972 59.6839 20.5642C57.8945 21.6996 55.6953 23.2405 53.3954 24.9632C48.8053 28.4013 43.7426 32.6171 40.6901 35.8469L39.2293 37.3926L41.3542 37.4816C48.4159 37.7772 56.876 40.0419 63.621 42.2605C66.9827 43.3662 69.8978 44.4534 71.9718 45.264C72.2336 45.3663 72.4819 45.4642 72.716 45.5572C72.8176 46.8936 72.8696 48.2506 72.8696 49.6255C72.8696 50.9716 72.8197 52.3005 72.7223 53.6098C70.546 52.7441 67.3261 51.5188 63.819 50.3468C56.83 48.0112 47.9418 45.5896 40.5782 45.3771L38.6187 45.3205L39.7631 46.9122C42.58 50.8301 48.5885 58.1667 54.2322 64.7327C57.0575 68.0198 59.8012 71.1251 62.0195 73.5246C63.1281 74.7237 64.208 75.8479 65.0075 76.6373C64.6922 77.1038 64.3689 77.5613 64.038 78.0094C63.3844 77.3651 62.5411 76.4834 61.5603 75.423C59.4784 73.1725 56.8069 70.1502 54.0756 66.9665C48.5865 60.5681 42.9489 53.6257 41.3243 50.9701L39.5194 48.0199L39.5277 51.4784C39.558 64.1342 40.7838 77.8971 43.9929 90.9913C42.6499 91.2054 41.2854 91.3157 39.9053 91.3157C38.3484 91.3157 36.8119 91.1765 35.3043 90.9069C31.9401 77.3572 30.7346 63.021 30.8041 49.9335L30.8131 48.2349L29.3459 49.0909C28.6415 49.5019 27.9253 50.3156 27.2354 51.2667C26.5213 52.2511 25.7508 53.5046 24.9584 54.9254C23.3722 57.7698 21.6605 61.3538 20.0928 64.9559C18.5243 68.5598 17.0915 72.2015 16.0653 75.1669C15.7905 75.9609 15.5437 76.7098 15.3307 77.399C15.0973 77.0701 14.8679 76.7364 14.6426 76.3981C15.6255 72.445 17.5708 67.4447 19.8439 62.6452C22.7491 56.5111 26.0923 50.9096 28.4516 48.3919L30.541 46.1623L27.5483 46.7794C21.5438 48.0176 15.6048 49.851 11.175 51.3709C9.58026 51.9181 8.17873 52.4254 7.03733 52.851C6.97354 51.7879 6.94103 50.7123 6.94103 49.6255C6.94103 47.9604 7.01736 46.3215 7.16557 44.7136C8.45538 44.227 10.1612 43.604 12.1551 42.9248C16.7393 41.3632 22.8259 39.5113 28.8739 38.3308L30.864 37.9423L29.3122 36.6372C26.6299 34.3813 23.1452 30.6286 20.2392 27.1408C18.7901 25.4018 17.4982 23.7445 16.5338 22.3916C16.2416 21.9817 15.9818 21.6031 15.7582 21.2612C16.0941 20.8058 16.4378 20.3601 16.789 19.9243L17.2618 20.5837C18.234 21.8874 19.5725 23.5838 21.051 25.3698C23.9897 28.9193 27.5564 32.9137 29.9238 34.8616L31.3502 36.0352L31.5059 34.1947C32.4688 22.8165 34.2812 13.5413 36.0822 8.21708C37.3394 8.03095 38.6153 7.93541 39.9053 7.93541C41.514 7.93541 43.1009 8.08398 44.6567 8.37155C42.982 13.6519 41.384 21.9597 40.4296 31.9151L40.1245 35.0981L42.146 32.6205C43.8418 30.542 47.7512 27.213 51.8313 24.2054Z" fill="#B71F27"/>
</svg>
