<svg width="27" height="18" viewBox="0 0 27 18" fill="none" xmlns="http://www.w3.org/2000/svg">
<path fill-rule="evenodd" clip-rule="evenodd" d="M0 1.08163C0 0.484264 0.484263 0 1.08163 0H25.4184C26.0157 0 26.5 0.484264 26.5 1.08163V16.1472C26.5 16.7446 26.0157 17.2289 25.4184 17.2289H1.08163C0.484263 17.2289 0 16.7446 0 16.1472V1.08163ZM3.06176 1.62245L12.569 9.32685C12.966 9.64857 13.534 9.64857 13.931 9.32685L23.4382 1.62245H3.06176ZM24.8776 2.53689L13.9321 11.4314C13.5347 11.7544 12.9653 11.7544 12.5679 11.4314L1.62245 2.53689V14.5248C1.62245 15.1222 2.10671 15.6064 2.70408 15.6064H23.7959C24.3933 15.6064 24.8776 15.1221 24.8776 14.5248V2.53689Z" fill="#B71F27"/>
</svg>
