<svg width="25" height="25" viewBox="0 0 25 25" fill="none" xmlns="http://www.w3.org/2000/svg">
<path fill-rule="evenodd" clip-rule="evenodd" d="M24.2424 12.0054C24.2424 18.6328 18.8698 24.0054 12.2424 24.0054C5.61501 24.0054 0.242432 18.6328 0.242432 12.0054C0.242432 5.37795 5.61501 0.00537109 12.2424 0.00537109C18.8698 0.00537109 24.2424 5.37795 24.2424 12.0054ZM18.2684 5.74042L4.88274 10.9022C3.96529 11.2609 3.98149 11.7689 4.72539 12.0049L8.15223 13.0741L16.1015 8.0685C16.4706 7.82319 16.813 7.96204 16.533 8.2085L10.1005 14.0206L9.85407 17.5532C10.2127 17.5532 10.3689 17.397 10.554 17.2119L12.2281 15.5989L15.6989 18.1572C16.3317 18.5159 16.7841 18.3308 16.953 17.5694L19.2322 6.8304L19.231 6.83156C19.4323 5.892 18.8897 5.51594 18.2684 5.74042Z" fill="#B71F27"/>
</svg>
