<svg width="18" height="23" viewBox="0 0 18 23" fill="none" xmlns="http://www.w3.org/2000/svg">
    <path fill-rule="evenodd" clip-rule="evenodd" d="M5.05999 17.7549C5.40437 18.3236 5.8045 18.8926 6.30734 19.3912C6.77712 19.857 7.46398 20.4805 8.25815 21.0183C9.04353 21.5502 9.98531 22.0339 10.959 22.1564C11.8361 22.2668 12.9526 22.1456 13.7033 22.0346C14.4316 21.9269 15.1052 21.6509 15.7062 21.2869L16.5048 20.8033C17.3999 20.2612 17.6861 19.0962 17.144 18.2011L15.5082 15.4999C14.9661 14.6048 13.8011 14.3186 12.906 14.8607L10.7451 16.1694C10.4467 16.35 10.0583 16.2546 9.87766 15.9563L5.29736 8.39297C5.11667 8.0946 5.21207 7.70625 5.51043 7.52557L7.67138 6.21691C8.56647 5.67485 8.85266 4.5098 8.3106 3.61471L6.67478 0.913524C6.13272 0.0184312 4.96767 -0.267758 4.07258 0.274305L3.27397 0.75794C2.673 1.12188 2.1163 1.59097 1.68339 2.18646C1.23719 2.80025 0.61247 3.73352 0.303898 4.56201C-0.0386192 5.48163 -0.0463804 6.54031 0.0610692 7.48273C0.169723 8.43571 0.404022 9.33329 0.599132 9.96541C0.807976 10.642 1.12686 11.2603 1.47124 11.8289L5.05999 17.7549ZM6.14046 17.1006C6.45606 17.6217 6.79482 18.0957 7.19671 18.4942C7.63487 18.9287 8.26011 19.4941 8.96645 19.9725C9.6816 20.4568 10.4288 20.8166 11.1167 20.9032C11.8088 20.9903 12.7767 20.8948 13.5185 20.785C14.0489 20.7066 14.5644 20.5017 15.0519 20.2065L15.8505 19.7228C16.1488 19.5421 16.2442 19.1538 16.0636 18.8554L14.4277 16.1542C14.247 15.8559 13.8587 15.7605 13.5603 15.9412L11.3994 17.2498C10.5043 17.7919 9.33925 17.5057 8.79718 16.6106L4.21689 9.04729C3.67483 8.1522 3.96101 6.98715 4.85611 6.44509L7.01705 5.13644C7.31542 4.95575 7.41081 4.5674 7.23013 4.26904L5.59431 1.56785C5.41362 1.26949 5.02527 1.17409 4.7269 1.35478L3.92829 1.83841C3.44085 2.1336 3.0204 2.4955 2.7051 2.92922C2.26418 3.53573 1.73107 4.34923 1.48762 5.00288C1.24561 5.65266 1.21825 6.48149 1.3161 7.33963C1.41273 8.18722 1.62413 9.00329 1.8061 9.59287C1.97302 10.1337 2.23612 10.6535 2.55172 11.1746L6.14046 17.1006Z" fill="#B71F27"/>
</svg>
