<svg width="18" height="24" viewBox="0 0 18 24" fill="none" xmlns="http://www.w3.org/2000/svg">
    <path fill-rule="evenodd" clip-rule="evenodd" d="M9.41466 20.4492C9.00971 20.9801 8.72727 21.3435 8.72727 21.3435C8.72727 21.3435 8.44484 20.9801 8.03988 20.4492C7.33544 19.5256 6.26024 18.0952 5.65618 17.1898C4.70294 15.7609 3.76354 14.184 3.06552 12.6453C2.36005 11.0902 1.93939 9.65606 1.93939 8.48988C1.93939 4.89156 4.95415 1.93135 8.72727 1.93135C12.5004 1.93135 15.5152 4.89156 15.5152 8.48988C15.5152 9.65606 15.0945 11.0902 14.389 12.6453C13.691 14.184 12.7516 15.7609 11.7984 17.1898C11.1943 18.0952 10.1191 19.5256 9.41466 20.4492ZM8.72727 0C3.93161 0 0 3.77719 0 8.48988C0 10.0598 0.549041 11.7892 1.29812 13.4404C1.92529 14.823 6.4493 21.4892 8.03583 23.7284C8.29241 24.0905 9.13341 24.0905 9.38999 23.7284C10.9765 21.4892 15.5293 14.823 16.1564 13.4404C16.9055 11.7892 17.4545 10.0598 17.4545 8.48988C17.4545 3.77719 13.5229 0 8.72727 0Z" fill="#B71F27"/>
    <path d="M11.5152 9.01295C11.5152 10.5395 10.2713 11.7847 8.72727 11.7847C7.18329 11.7847 5.93939 10.5395 5.93939 9.01295C5.93939 7.48641 7.18329 6.24117 8.72727 6.24117C10.2713 6.24117 11.5152 7.48641 11.5152 9.01295Z" fill="#B71F27"/>
</svg>
