<svg width="25" height="25" viewBox="0 0 25 25" fill="none" xmlns="http://www.w3.org/2000/svg">
    <path fill-rule="evenodd" clip-rule="evenodd" d="M3.75715 3.52009C8.44344 -1.1662 16.0414 -1.1662 20.7277 3.52009C25.414 8.20638 25.414 15.8044 20.7277 20.4907C16.0414 25.1769 8.44344 25.1769 3.75715 20.4907C-0.929141 15.8044 -0.929141 8.20638 3.75715 3.52009ZM19.0794 8.13787L19.0836 8.15494C19.5103 10.1034 19.5103 12.0794 19.0836 14.0279L19.0794 14.045C18.7342 15.4402 17.1783 16.9374 15.7494 17.2488L15.7333 17.2522C14.5779 17.4726 13.4141 17.5826 12.2507 17.5826C11.9082 17.5826 11.5658 17.5719 11.2236 17.5528L9.63781 19.3179C9.24716 19.7247 8.44031 19.4798 8.44031 18.9161L8.56798 17.2018C7.19243 16.809 5.75235 15.3806 5.42149 14.0449L5.4177 14.0279C4.99102 12.0794 4.99102 10.1034 5.4177 8.15494L5.42149 8.13787C5.7671 6.74264 7.32304 5.24549 8.75145 4.93402L8.76804 4.9307C11.0787 4.4898 13.4221 4.4898 15.7333 4.9307L15.7494 4.93402C17.1783 5.24549 18.7342 6.74264 19.0794 8.13787Z" fill="#B71F27"/>
    <path fill-rule="evenodd" clip-rule="evenodd" d="M17.8349 13.7453C17.6045 14.6556 16.4231 15.7872 15.4844 15.9963C14.2555 16.2299 13.0169 16.3298 11.7796 16.2956C11.755 16.2949 11.7313 16.3044 11.7141 16.3221L10.562 17.5048L9.5 18.5054C9.3133 18.6858 9.08947 18.6063 9.08947 18.3281V16.0834C9.08947 16.0408 9.05904 16.0046 9.01717 15.9964C8.07849 15.7873 6.89684 14.6555 6.66596 13.7453C6.28195 11.9841 6.28195 10.1987 6.66596 8.43744C6.89684 7.5272 8.07778 6.39557 9.01646 6.1865C11.1626 5.77831 13.3387 5.77831 15.4844 6.1865C16.4235 6.39557 17.6045 7.5272 17.8349 8.43744C18.2193 10.1987 18.2193 11.9841 17.8349 13.7453ZM10.3769 12.4669C11.3417 13.5528 12.5597 14.2611 13.8831 14.8102C13.9697 14.8461 14.0607 14.8712 14.1553 14.8973C14.2004 14.9097 14.2462 14.9223 14.2927 14.9365C14.3323 14.9243 14.3727 14.914 14.413 14.9037C14.5 14.8816 14.5862 14.8596 14.6623 14.8188C15.0564 14.6071 15.3296 14.2755 15.5173 13.8769C15.6198 13.6592 15.5571 13.4488 15.375 13.2885C15.1987 13.1332 15.0093 12.9984 14.8182 12.8624L14.7759 12.8323C14.5667 12.6832 14.3563 12.5357 14.1392 12.3983C13.9222 12.261 13.6647 12.2632 13.4632 12.4279C13.3904 12.4874 13.3315 12.5661 13.2727 12.6445C13.165 12.7883 13.058 12.9313 12.8676 12.9535C12.7076 12.9722 12.5663 12.9125 12.4272 12.8538L12.3864 12.8367C11.4336 12.4402 10.853 11.7041 10.5085 10.7575C10.4638 10.6345 10.4671 10.5011 10.5366 10.388C10.5746 10.3262 10.6268 10.28 10.6823 10.2344L10.7194 10.2035C10.77 10.1613 10.8207 10.1191 10.8753 10.082C11.1546 9.89222 11.1969 9.55136 11.0428 9.2725C10.7921 8.81914 10.4826 8.40801 10.1456 8.01689C9.98972 7.83598 9.77918 7.77687 9.56575 7.87941C9.2923 8.01078 9.0398 8.18903 8.84358 8.42195C8.63446 8.67013 8.43587 9.01043 8.5707 9.33982L8.61648 9.45187C8.74884 9.77603 8.88142 10.1008 9.03577 10.4145C9.39878 11.1522 9.82821 11.8494 10.3769 12.4669ZM15.7119 10.3323C15.4072 8.62089 13.9854 7.47205 12.2542 7.42355L12.2251 7.42319C12.2221 7.42315 12.2191 7.4231 12.2162 7.42305C12.1954 7.42274 12.1745 7.42259 12.1538 7.42374C12.031 7.43033 11.9222 7.53297 11.9452 7.66187C11.9711 7.80711 12.1171 7.82183 12.2375 7.83397L12.2583 7.8361C12.3192 7.84248 12.3802 7.84776 12.4413 7.85303C12.5765 7.86472 12.7117 7.8764 12.8448 7.90015C14.1284 8.12908 15.1567 9.19596 15.3359 10.4855C15.363 10.6804 15.3763 10.8772 15.3896 11.0739C15.393 11.1238 15.3964 11.1737 15.4 11.2236C15.409 11.348 15.4715 11.4641 15.6102 11.4625C15.7446 11.4608 15.8151 11.3426 15.8054 11.2181L15.797 11.1086C15.7772 10.8488 15.7574 10.588 15.7119 10.3323ZM14.4978 10.9744C14.5585 11.1498 14.822 11.1281 14.8679 10.9543C14.8774 10.9185 14.8806 10.8811 14.8829 10.8554C14.8832 10.8513 14.8835 10.8475 14.8839 10.844C14.8842 10.8402 14.8846 10.8368 14.885 10.8339L14.8794 10.7349C14.8753 10.6617 14.8718 10.5984 14.867 10.5351C14.8652 10.5117 14.861 10.4885 14.8568 10.4652C14.8544 10.4523 14.8521 10.4393 14.8501 10.4263C14.7304 9.62466 14.3201 9.02428 13.6019 8.64392C13.2487 8.4569 12.8649 8.37104 12.4677 8.34847C12.3468 8.34165 12.2657 8.42143 12.2604 8.53237C12.2547 8.65075 12.3188 8.72731 12.439 8.744C12.4764 8.74921 12.5139 8.75386 12.5514 8.75851C12.6132 8.76619 12.675 8.77386 12.7365 8.78401C12.9622 8.82137 13.1849 8.88404 13.3908 8.98488C13.7314 9.15166 14.0218 9.4273 14.2119 9.75517C14.3968 10.0742 14.4764 10.4405 14.4771 10.8071C14.4772 10.8632 14.4799 10.9224 14.4978 10.9744ZM13.571 10.5817C13.5859 10.7145 13.6634 10.7947 13.8082 10.7921C13.8742 10.7876 13.9418 10.7419 13.963 10.6506C13.975 10.5989 13.97 10.542 13.9653 10.4879L13.9648 10.4825C13.8964 9.69244 13.4167 9.34546 12.7455 9.29701C12.6382 9.28923 12.5425 9.36594 12.5261 9.46422C12.508 9.57222 12.5716 9.66542 12.6868 9.69363C12.7364 9.7058 12.787 9.71042 12.8377 9.71504C12.8952 9.72029 12.9529 9.72554 13.0093 9.74184C13.0929 9.76597 13.1728 9.80338 13.2432 9.85472C13.3925 9.96343 13.4868 10.1278 13.5303 10.3052C13.5493 10.3828 13.558 10.4631 13.5667 10.543L13.571 10.5817Z" fill="#B71F27"/>
    <path fill-rule="evenodd" clip-rule="evenodd" d="M12.4413 7.85303C12.3802 7.84776 12.3192 7.84248 12.2583 7.8361L12.4413 7.85303Z" fill="#B71F27"/>
</svg>
