<svg width="31" height="19" viewBox="0 0 31 19" fill="none" xmlns="http://www.w3.org/2000/svg">
<path d="M2.94602 12.0273L2.9576 11.9093L2.92056 11.7965C2.6542 10.9859 2.5093 10.1156 2.5093 9.20864C2.5093 4.78103 5.95501 1.22984 10.1594 1.22984H22.6209C26.8253 1.22984 30.271 4.78103 30.271 9.20864C30.271 13.6363 26.8253 17.1874 22.6209 17.1874H10.1594C8.66053 17.1874 7.26267 16.7384 6.08139 15.9605L6.01711 15.9181L5.94383 15.8946C5.65226 15.801 5.30923 15.8328 5.02051 15.8835C4.70862 15.9383 4.35588 16.0357 3.99437 16.152C3.27093 16.3846 2.44856 16.7138 1.74016 16.9975C1.65932 17.0299 1.58047 17.0615 1.50375 17.0921C1.85566 16.4779 2.12503 15.7704 2.32998 15.0941C2.67984 13.9395 2.87368 12.7654 2.94602 12.0273Z" stroke="white" stroke-width="1.12667"/>
</svg>
